<svg width="17" height="17" viewBox="0 0 17 17" fill="none" xmlns="http://www.w3.org/2000/svg">
<path d="M14.0417 2.16666H12.4583V1.37499C12.4583 1.16503 12.3749 0.963668 12.2265 0.815202C12.078 0.666736 11.8766 0.583328 11.6667 0.583328C11.4567 0.583328 11.2553 0.666736 11.1069 0.815202C10.9584 0.963668 10.875 1.16503 10.875 1.37499V2.16666H6.125V1.37499C6.125 1.16503 6.04159 0.963668 5.89312 0.815202C5.74466 0.666736 5.54329 0.583328 5.33333 0.583328C5.12337 0.583328 4.922 0.666736 4.77354 0.815202C4.62507 0.963668 4.54166 1.16503 4.54166 1.37499V2.16666H2.95833C2.32844 2.16666 1.72435 2.41688 1.27895 2.86228C0.833551 3.30768 0.583328 3.91177 0.583328 4.54166V14.0417C0.583328 14.6716 0.833551 15.2756 1.27895 15.721C1.72435 16.1664 2.32844 16.4167 2.95833 16.4167H14.0417C14.6716 16.4167 15.2756 16.1664 15.721 15.721C16.1664 15.2756 16.4167 14.6716 16.4167 14.0417V4.54166C16.4167 3.91177 16.1664 3.30768 15.721 2.86228C15.2756 2.41688 14.6716 2.16666 14.0417 2.16666ZM14.8333 14.0417C14.8333 14.2516 14.7499 14.453 14.6015 14.6015C14.453 14.7499 14.2516 14.8333 14.0417 14.8333H2.95833C2.74837 14.8333 2.547 14.7499 2.39854 14.6015C2.25007 14.453 2.16666 14.2516 2.16666 14.0417V8.5H14.8333V14.0417ZM14.8333 6.91666H2.16666V4.54166C2.16666 4.3317 2.25007 4.13034 2.39854 3.98187C2.547 3.8334 2.74837 3.74999 2.95833 3.74999H4.54166V4.54166C4.54166 4.75162 4.62507 4.95299 4.77354 5.10145C4.922 5.24992 5.12337 5.33333 5.33333 5.33333C5.54329 5.33333 5.74466 5.24992 5.89312 5.10145C6.04159 4.95299 6.125 4.75162 6.125 4.54166V3.74999H10.875V4.54166C10.875 4.75162 10.9584 4.95299 11.1069 5.10145C11.2553 5.24992 11.4567 5.33333 11.6667 5.33333C11.8766 5.33333 12.078 5.24992 12.2265 5.10145C12.3749 4.95299 12.4583 4.75162 12.4583 4.54166V3.74999H14.0417C14.2516 3.74999 14.453 3.8334 14.6015 3.98187C14.7499 4.13034 14.8333 4.3317 14.8333 4.54166V6.91666Z" fill="black" fill-opacity="0.33"/>
</svg>
