<svg width="17" height="19" viewBox="0 0 17 19" fill="none" xmlns="http://www.w3.org/2000/svg">
<path d="M9.99998 0.666626V5.66663C9.99998 6.10865 10.1756 6.53258 10.4881 6.84514C10.8007 7.1577 11.2246 7.33329 11.6666 7.33329H16.6666V15.6666C16.6666 16.1087 16.491 16.5326 16.1785 16.8451C15.8659 17.1577 15.442 17.3333 15 17.3333H9.32498C10.1875 16.4354 10.7144 15.2679 10.817 14.0271C10.9196 12.7863 10.5916 11.5481 9.88827 10.5208C9.18494 9.49345 8.14918 8.73978 6.95531 8.3866C5.76145 8.03342 4.48235 8.10229 3.33331 8.58163V2.33329C3.33331 1.89127 3.50891 1.46734 3.82147 1.15478C4.13403 0.842221 4.55795 0.666626 4.99998 0.666626H9.99998ZM11.25 1.08329V5.66663C11.25 5.77713 11.2939 5.88311 11.372 5.96125C11.4502 6.03939 11.5561 6.08329 11.6666 6.08329H16.25L11.25 1.08329ZM9.99998 13.5833C9.99998 14.1852 9.88143 14.7812 9.65109 15.3373C9.42076 15.8933 9.08315 16.3986 8.65755 16.8242C8.23195 17.2498 7.72669 17.5874 7.17061 17.8177C6.61454 18.0481 6.01854 18.1666 5.41665 18.1666C4.81475 18.1666 4.21876 18.0481 3.66268 17.8177C3.1066 17.5874 2.60134 17.2498 2.17574 16.8242C1.75014 16.3986 1.41253 15.8933 1.1822 15.3373C0.951864 14.7812 0.833313 14.1852 0.833313 13.5833C0.833313 12.3677 1.3162 11.2019 2.17574 10.3424C3.03528 9.48284 4.20107 8.99996 5.41665 8.99996C6.63222 8.99996 7.79801 9.48284 8.65755 10.3424C9.51709 11.2019 9.99998 12.3677 9.99998 13.5833ZM8.21165 11.6216C8.17294 11.5828 8.12696 11.552 8.07634 11.531C8.02572 11.51 7.97145 11.4992 7.91665 11.4992C7.86184 11.4992 7.80757 11.51 7.75695 11.531C7.70633 11.552 7.66035 11.5828 7.62165 11.6216L4.58331 14.6608L3.21165 13.2883C3.13341 13.2101 3.02729 13.1661 2.91665 13.1661C2.806 13.1661 2.69988 13.2101 2.62165 13.2883C2.54341 13.3665 2.49945 13.4726 2.49945 13.5833C2.49945 13.6939 2.54341 13.8001 2.62165 13.8783L4.28831 15.545C4.32702 15.5838 4.373 15.6145 4.42362 15.6356C4.47424 15.6566 4.52851 15.6674 4.58331 15.6674C4.63812 15.6674 4.69239 15.6566 4.74301 15.6356C4.79363 15.6145 4.83961 15.5838 4.87831 15.545L8.21165 12.2116C8.25045 12.1729 8.28123 12.1269 8.30224 12.0763C8.32324 12.0257 8.33406 11.9714 8.33406 11.9166C8.33406 11.8618 8.32324 11.8076 8.30224 11.7569C8.28123 11.7063 8.25045 11.6603 8.21165 11.6216Z" fill="white"/>
</svg>
