<svg width="15" height="17" viewBox="0 0 15 17" fill="none" xmlns="http://www.w3.org/2000/svg">
<path d="M7.50002 8.07998C6.87002 8.07998 6.45002 8.49998 6.45002 9.12998C6.45002 9.54998 6.76503 9.86497 7.08003 9.96997L6.76503 11.44H8.13003L7.81503 9.96997C8.23503 9.86497 8.44502 9.54998 8.44502 9.12998C8.55002 8.49998 8.13002 8.07998 7.50002 8.07998ZM7.60503 3.56498C6.87003 3.56498 6.13502 4.08998 6.13502 4.82498V6.39998H8.97003V4.82498C8.86502 4.08998 8.34002 3.56498 7.60503 3.56498ZM7.50002 0.0999756L0.150024 3.24998V6.39998C0.255024 11.02 3.19502 15.115 7.50002 16.795C11.805 15.115 14.745 11.02 14.85 6.39998V3.24998L7.50002 0.0999756ZM11.7 11.65C11.7 12.28 11.28 12.7 10.65 12.7H4.35002C3.72002 12.7 3.30002 12.28 3.30002 11.65V7.44998C3.30002 6.81998 3.72002 6.39998 4.35002 6.39998H4.66502V4.82498C4.77002 3.35498 6.03003 2.19998 7.50002 2.19998C8.97003 2.19998 10.23 3.35498 10.335 4.82498V6.39998H10.65C11.28 6.39998 11.7 6.81998 11.7 7.44998V11.65Z" fill="white"/>
</svg>
