<svg width="16" height="18" viewBox="0 0 16 18" fill="none" xmlns="http://www.w3.org/2000/svg">
<path d="M15.0055 12.6222C14.1129 11.655 13.0295 10.8831 11.8239 10.3552C10.6182 9.82724 9.31621 9.55469 7.99999 9.55469C6.68378 9.55469 5.38183 9.82724 4.17614 10.3552C2.97044 10.8831 1.88713 11.655 0.994438 12.6222C0.856614 12.7746 0.779517 12.9723 0.777771 13.1778V16.5111C0.780692 16.7302 0.869778 16.9393 1.02574 17.0932C1.18171 17.2471 1.392 17.3333 1.6111 17.3333H14.3889C14.6099 17.3333 14.8219 17.2455 14.9781 17.0892C15.1344 16.933 15.2222 16.721 15.2222 16.5V13.1667C15.2178 12.965 15.1409 12.7718 15.0055 12.6222Z" fill="white"/>
<path d="M8.00003 8.44446C10.1478 8.44446 11.8889 6.70335 11.8889 4.55558C11.8889 2.4078 10.1478 0.666687 8.00003 0.666687C5.85226 0.666687 4.11115 2.4078 4.11115 4.55558C4.11115 6.70335 5.85226 8.44446 8.00003 8.44446Z" fill="white"/>
</svg>
