<svg width="17" height="17" viewBox="0 0 17 17" fill="none" xmlns="http://www.w3.org/2000/svg">
<path d="M9.94084 16.4167H7.05918C6.87862 16.4167 6.70348 16.355 6.5628 16.2419C6.42212 16.1287 6.32436 15.9708 6.28572 15.7945L5.96351 14.303C5.53368 14.1146 5.12611 13.8791 4.7483 13.6007L3.29401 14.0639C3.12187 14.1188 2.93614 14.1131 2.76765 14.0479C2.59916 13.9827 2.45805 13.8617 2.36776 13.7052L0.92376 11.2107C0.834417 11.0541 0.80088 10.8717 0.828635 10.6936C0.856391 10.5154 0.943796 10.3519 1.07655 10.2298L2.20468 9.20067C2.15337 8.73446 2.15337 8.26404 2.20468 7.79783L1.07655 6.77104C0.943608 6.64894 0.856084 6.48531 0.828324 6.30695C0.800564 6.1286 0.834214 5.9461 0.92376 5.78937L2.36459 3.29325C2.45488 3.13675 2.59599 3.01584 2.76448 2.95061C2.93297 2.88537 3.11871 2.87973 3.29084 2.93462L4.74514 3.39775C4.9383 3.25525 5.13939 3.12225 5.3468 3.00192C5.54709 2.8895 5.75293 2.78737 5.96351 2.69633L6.28651 1.20642C6.32496 1.03003 6.42254 0.872085 6.56308 0.758767C6.70361 0.645448 6.87865 0.583564 7.05918 0.583374H9.94084C10.1214 0.583564 10.2964 0.645448 10.4369 0.758767C10.5775 0.872085 10.6751 1.03003 10.7135 1.20642L11.0397 2.69712C11.2613 2.79529 11.4783 2.90533 11.6881 3.02804C11.8836 3.14125 12.0728 3.26554 12.2549 3.39933L13.71 2.93621C13.882 2.88152 14.0676 2.88726 14.2359 2.95248C14.4042 3.01771 14.5452 3.1385 14.6354 3.29483L16.0763 5.79096C16.2599 6.11317 16.1966 6.52087 15.9235 6.77183L14.7953 7.801C14.8466 8.2672 14.8466 8.73763 14.7953 9.20383L15.9235 10.233C16.1966 10.4847 16.2599 10.8917 16.0763 11.2139L14.6354 13.71C14.5451 13.8665 14.404 13.9874 14.2355 14.0526C14.067 14.1179 13.8813 14.1235 13.7092 14.0686L12.2549 13.6055C11.8774 13.8836 11.4701 14.1189 11.0405 14.3069L10.7135 15.7945C10.6749 15.9707 10.5773 16.1285 10.4367 16.2416C10.2962 16.3548 10.1213 16.4166 9.94084 16.4167ZM8.49684 5.33337C7.65699 5.33337 6.85154 5.667 6.25767 6.26087C5.66381 6.85473 5.33018 7.66019 5.33018 8.50004C5.33018 9.33989 5.66381 10.1453 6.25767 10.7392C6.85154 11.3331 7.65699 11.6667 8.49684 11.6667C9.3367 11.6667 10.1421 11.3331 10.736 10.7392C11.3299 10.1453 11.6635 9.33989 11.6635 8.50004C11.6635 7.66019 11.3299 6.85473 10.736 6.26087C10.1421 5.667 9.3367 5.33337 8.49684 5.33337Z" fill="white"/>
</svg>
